<svg width="1239" height="982" viewBox="0 0 1239 982" fill="none" xmlns="http://www.w3.org/2000/svg">
<path d="M621.448 863.7C687.174 846.403 753.681 865.039 811.373 891.374C868.953 917.709 922.627 951.967 985.117 968.147C1047.61 984.328 1123.82 978.748 1175.49 933.778C1230.06 886.352 1241.55 809.914 1232.73 744.523C1223.92 679.243 1199.15 617.422 1197.03 551.027C1194.35 468.674 1226.6 384.759 1226.15 302.072C1225.59 200.302 1172.14 105.005 1085.99 52.4467C999.735 -0.334953 882.902 -9.15049 779.57 29.1246C708.711 55.348 644.659 102.104 571.791 120.07C467.79 145.735 362.896 108.911 258.114 128.104C133.692 150.757 23.8885 259.779 5.92268 378.51C-12.0432 497.129 63.3911 613.963 179.332 646.547C262.801 670.093 366.021 656.032 428.845 710.823C460.872 738.72 472.812 765.278 500.151 797.416C517.224 817.502 534.855 838.034 558.624 850.979C582.392 863.7 593.216 871.176 621.448 863.7V863.7Z" stroke="white" stroke-opacity="0.5" stroke-width="0.836918" stroke-miterlimit="10"/>
<path d="M627.028 851.983C599.688 859.125 589.087 851.871 565.988 839.485C542.889 826.987 525.928 807.124 509.301 787.485C484.417 758.137 472.588 733.587 445.472 708.256C443.798 706.694 442.013 705.02 440.116 703.458C379.188 650.23 279.204 663.732 198.191 640.745C174.98 634.161 153.443 624.118 134.027 611.285C59.4853 562.074 16.1888 471.91 30.249 380.519C47.6569 265.582 154.001 159.907 274.518 137.924C376.064 119.289 477.61 154.886 578.375 130.113C649.011 112.705 710.943 67.5114 779.57 42.1807C855.227 14.2834 938.361 12.3864 1010.45 35.1506C1033.77 42.5155 1055.98 52.4469 1076.4 64.9449C1159.87 116.053 1211.64 208.337 1212.31 306.982C1212.76 387.103 1181.63 468.451 1184.3 548.237C1186.42 612.624 1210.42 672.548 1219.01 735.819C1227.6 799.201 1216.44 873.297 1163.66 919.271C1113.67 962.791 1039.8 968.371 979.315 952.748C918.833 937.126 866.833 904.095 811.038 878.653C755.132 853.322 690.634 835.245 627.028 851.983Z" stroke="white" stroke-opacity="0.5" stroke-width="0.836918" stroke-miterlimit="10"/>
<path d="M632.607 840.266C606.049 847.185 595.783 840.154 573.465 828.103C551.147 815.94 534.632 796.635 518.452 777.665C494.348 749.209 482.855 725.441 456.631 700.891C454.957 699.329 453.283 697.767 451.498 696.204C392.467 644.539 295.608 657.371 217.161 635.054C194.62 628.693 173.753 618.873 155.006 606.375C82.696 558.615 40.7384 471.129 54.4639 382.527C71.4255 271.273 174.311 169.169 290.81 147.744C389.12 129.778 487.43 164.147 584.847 140.156C653.14 123.306 713.175 79.6745 779.57 55.2365C852.773 28.3435 933.228 26.6697 1002.97 48.7643C1025.51 55.906 1047.05 65.6143 1066.8 77.6659C1147.59 127.211 1197.69 216.594 1198.36 312.115C1198.92 389.669 1168.79 468.451 1171.47 545.782C1173.59 608.161 1196.8 666.075 1205.06 727.449C1213.32 788.823 1202.72 860.575 1151.61 905.211C1103.18 947.392 1031.87 952.748 973.4 937.683C914.816 922.619 864.601 890.704 810.592 866.155C756.583 841.605 694.204 824.086 632.607 840.266Z" stroke="white" stroke-opacity="0.5" stroke-width="0.836918" stroke-miterlimit="10"/>
<path d="M638.187 828.549C612.521 835.245 602.59 828.438 580.941 816.721C559.293 805.004 543.336 786.257 527.713 767.956C504.391 740.394 493.232 717.295 467.79 693.526C466.228 691.964 464.554 690.514 462.769 688.951C405.635 638.848 311.9 651.123 236.019 629.363C214.26 623.114 194.062 613.629 175.873 601.577C105.907 555.156 65.2881 470.46 78.6788 384.648C95.0824 277.187 194.62 178.431 307.213 157.787C402.176 140.379 497.25 173.521 591.431 150.422C657.492 134.242 715.518 92.0611 779.682 68.5158C850.541 42.6271 928.207 41.0648 995.607 62.6016C1017.48 69.5201 1038.23 78.8936 1057.32 90.6104C1135.43 138.594 1183.86 225.075 1184.64 317.471C1185.2 392.459 1156.3 468.674 1158.86 543.439C1160.98 603.809 1183.41 659.827 1191.45 719.08C1199.48 778.446 1189.33 847.854 1139.89 891.151C1093.14 931.992 1024.29 937.237 967.709 922.731C911.134 908.336 862.481 877.537 810.257 853.768C758.033 829.777 697.775 812.927 638.187 828.549V828.549Z" stroke="white" stroke-opacity="0.5" stroke-width="0.836918" stroke-miterlimit="10"/>
<path d="M643.766 816.832C618.882 823.193 609.285 816.609 588.418 805.339C567.439 793.957 552.04 775.879 536.975 758.137C514.434 731.467 503.61 709.149 479.061 686.05C477.498 684.599 475.936 683.149 474.262 681.698C419.026 633.157 328.527 644.762 255.101 623.672C234.122 617.646 214.483 608.384 196.963 596.667C129.229 551.697 90.1725 469.79 103.228 386.656C119.409 282.878 215.152 187.581 323.84 167.607C415.566 150.757 507.293 182.671 598.238 160.465C661.955 144.843 717.973 104.224 779.905 81.46C848.309 56.464 923.297 55.125 988.465 75.9921C1009.56 82.6875 1029.53 91.8378 1048.05 103.108C1123.38 149.529 1170.24 233.11 1171.02 322.269C1171.58 394.691 1143.8 468.34 1146.36 540.538C1148.37 598.787 1170.13 653.02 1177.94 710.265C1185.75 767.622 1175.93 834.687 1128.29 876.644C1083.2 916.035 1016.7 921.168 962.13 907.331C907.563 893.494 860.584 863.811 810.146 840.936C759.484 818.06 701.235 801.768 643.766 816.832V816.832Z" stroke="white" stroke-opacity="0.5" stroke-width="0.836918" stroke-miterlimit="10"/>
<path d="M649.345 805.116C625.354 811.253 615.98 804.893 595.783 793.957C575.585 782.909 560.52 765.502 546.014 748.317C524.254 722.54 513.765 701.003 490.108 678.685C488.657 677.235 487.095 675.896 485.421 674.445C432.081 627.577 344.707 638.513 273.848 617.869C253.539 611.955 234.68 603.028 217.719 591.757C152.327 548.126 114.722 469.009 127.331 388.665C143.065 288.681 235.35 196.843 340.132 177.538C428.51 161.246 517.001 192.045 604.71 170.508C666.195 155.444 720.204 116.388 779.905 94.5161C845.965 70.5245 918.275 69.4086 980.988 89.6062C1001.3 96.19 1020.6 104.894 1038.34 115.941C1110.99 160.8 1156.18 241.367 1156.96 327.514C1157.63 397.481 1130.85 468.451 1133.31 538.083C1135.32 594.324 1156.29 646.548 1163.88 701.896C1171.47 757.244 1162.1 822.077 1116.23 862.473C1072.83 900.524 1008.77 905.546 956.215 892.267C903.657 878.988 858.352 850.421 809.699 828.549C760.934 806.343 704.805 790.609 649.345 805.116V805.116Z" stroke="white" stroke-opacity="0.5" stroke-width="0.836918" stroke-miterlimit="10"/>
<path d="M654.925 793.399C631.826 799.313 622.676 793.064 603.259 782.575C583.731 771.974 569.224 755.012 555.276 738.497C534.297 713.612 524.142 692.745 501.267 671.209C499.816 669.869 498.254 668.419 496.691 667.08C445.249 621.551 360.999 631.929 292.707 611.955C273.178 606.264 254.989 597.56 238.586 586.624C175.538 544.443 139.272 468.116 151.546 390.562C166.834 294.26 255.547 205.882 356.424 187.246C441.566 171.512 526.709 201.084 611.07 180.44C670.213 165.933 722.213 128.327 779.682 107.46C843.287 84.3613 912.919 83.4686 973.289 102.997C992.817 109.357 1011.45 117.838 1028.53 128.439C1098.49 171.736 1142.01 249.402 1142.9 332.424C1143.57 399.824 1117.91 468.228 1120.36 535.405C1122.37 589.637 1142.57 639.964 1149.82 693.192C1157.19 746.643 1148.26 809.133 1104.07 848.077C1062.34 884.79 1000.74 889.588 950.078 876.867C899.417 864.146 855.785 836.807 809.029 815.716C762.385 794.515 708.376 779.562 654.925 793.399Z" stroke="white" stroke-opacity="0.5" stroke-width="0.836918" stroke-miterlimit="10"/>
<path d="M660.505 781.57C638.187 787.261 629.483 781.235 610.736 771.081C591.877 760.815 577.929 744.523 564.426 728.565C544.117 704.574 534.409 684.488 512.426 663.732L508.074 659.715C458.528 615.972 377.403 625.68 311.677 606.264C292.818 600.684 275.299 592.315 259.565 581.714C198.749 540.984 163.933 467.335 175.873 392.57C190.714 300.063 275.968 215.032 372.939 197.178C454.734 182.113 536.641 210.457 617.766 190.594C674.676 176.757 724.668 140.602 779.905 120.628C841.056 98.5331 908.009 97.8636 966.147 116.722C984.894 122.86 1002.86 131.006 1019.26 141.272C1086.55 183.006 1128.4 257.771 1129.29 337.557C1130.07 402.39 1105.41 468.228 1107.87 532.838C1109.87 584.95 1129.29 633.491 1136.32 684.711C1143.46 736.153 1134.98 796.3 1092.47 833.906C1052.41 869.279 993.152 873.966 944.499 861.803C895.846 849.64 853.889 823.416 808.807 803.219C763.836 782.798 711.836 768.514 660.505 781.57V781.57Z" stroke="white" stroke-opacity="0.5" stroke-width="0.836918" stroke-miterlimit="10"/>
<path d="M666.084 769.853C644.659 775.321 636.178 769.519 618.212 759.587C600.135 749.656 586.632 734.033 573.688 718.634C554.16 695.535 544.786 676.119 523.585 656.144C522.245 654.917 520.795 653.577 519.344 652.35C471.696 610.169 393.806 619.32 330.535 600.461C312.458 595.105 295.608 586.959 280.432 576.804C221.959 537.525 188.482 466.666 200.088 394.579C214.483 305.754 296.166 224.294 389.231 206.998C467.79 192.491 546.349 219.607 624.238 200.637C678.805 187.358 726.788 152.654 779.905 133.572C838.601 112.482 902.988 111.924 958.671 130.113C976.748 136.027 993.821 143.95 1009.67 153.77C1074.28 193.942 1114.45 265.805 1115.45 342.467C1116.23 404.734 1092.69 468.005 1095.14 530.048C1097.04 580.152 1115.79 626.685 1122.6 676.007C1129.51 725.441 1121.37 783.244 1080.64 819.399C1042.25 853.434 985.452 858.009 938.808 846.404C892.163 834.798 851.88 809.802 808.583 790.386C765.287 771.081 715.406 757.355 666.084 769.853V769.853Z" stroke="white" stroke-opacity="0.5" stroke-width="0.836918" stroke-miterlimit="10"/>
<path d="M671.552 758.136C651.019 763.381 642.762 757.69 625.466 748.205C608.058 738.72 595.113 723.544 582.615 708.814C563.868 686.608 554.83 667.972 534.52 648.667L530.503 644.985C484.752 604.367 409.987 612.847 349.282 594.658C331.875 589.414 315.694 581.602 301.076 571.783C244.947 533.842 212.809 465.884 224.079 396.588C237.917 311.557 316.252 233.444 405.412 216.929C480.623 202.98 555.946 228.869 630.599 210.792C682.934 198.071 728.909 164.929 779.682 146.74C836.034 126.542 897.632 126.207 950.971 143.838C968.267 149.529 984.671 157.117 999.847 166.602C1061.67 205.212 1100.28 274.174 1101.28 347.712C1102.06 407.412 1079.63 468.116 1082.09 527.593C1083.99 575.688 1101.95 620.324 1108.53 667.638C1115.23 715.063 1107.53 770.634 1068.47 805.339C1031.76 838.034 977.418 842.386 932.67 831.339C888.258 820.18 849.648 796.3 808.137 777.776C766.737 759.252 718.866 746.196 671.552 758.136V758.136Z" stroke="white" stroke-opacity="0.5" stroke-width="0.836918" stroke-miterlimit="10"/>
<path d="M677.131 746.42C657.38 751.33 649.457 745.973 632.942 736.823C616.203 727.673 603.817 713.166 591.877 698.995C573.911 677.681 565.207 659.715 545.791 641.303C544.563 640.075 543.224 638.96 541.885 637.732C498.031 598.676 426.39 606.599 368.364 588.968C351.737 583.946 336.226 576.358 322.166 566.985C268.38 530.495 237.581 465.215 248.629 398.708C262.019 317.36 336.784 242.707 422.038 226.861C494.013 213.47 565.988 238.243 637.405 220.947C687.397 208.672 731.363 176.981 780.016 159.684C833.914 140.491 892.833 140.379 943.941 157.229C960.456 162.697 976.19 169.95 990.697 179.101C1049.84 216.148 1086.77 282.097 1087.89 352.51C1088.78 409.644 1067.47 467.782 1069.7 524.804C1071.6 570.779 1088.78 613.629 1095.03 658.822C1101.5 704.239 1094.25 757.467 1056.87 790.832C1021.83 822.077 969.829 826.429 927.202 815.94C884.464 805.562 847.528 782.798 807.802 765.167C768.188 747.536 722.436 735.038 677.131 746.42V746.42Z" stroke="white" stroke-opacity="0.5" stroke-width="0.836918" stroke-miterlimit="10"/>
<path d="M682.71 734.703C663.852 739.39 656.264 734.145 640.418 725.441C624.461 716.625 612.521 702.788 601.027 689.175C583.842 668.754 575.473 651.569 556.838 633.826L553.155 630.479C511.198 592.985 442.794 600.238 387.222 583.165C371.265 578.255 356.424 571.002 343.033 561.963C291.479 526.924 262.131 464.434 272.844 400.605C285.788 323.051 356.982 251.745 438.442 236.569C507.069 223.736 575.808 247.282 643.989 230.766C691.749 219.273 733.707 189.032 780.016 172.628C831.57 154.439 887.7 154.439 936.464 170.731C952.198 175.976 967.263 183.006 981.1 191.71C1037.56 227.196 1072.83 290.243 1073.94 357.532C1074.83 412.21 1054.64 467.67 1056.87 522.126C1058.77 566.092 1075.17 606.933 1081.2 650.23C1087.33 693.638 1080.53 744.523 1045.04 776.437C1011.68 806.343 962.13 810.472 921.4 800.652C880.67 790.832 845.407 769.184 807.467 752.446C769.638 735.707 726.007 723.879 682.71 734.703V734.703Z" stroke="white" stroke-opacity="0.5" stroke-width="0.836918" stroke-miterlimit="10"/>
<path d="M688.29 722.986C670.212 727.45 662.959 722.428 647.783 714.059C632.495 705.578 621.113 692.411 610.177 679.355C593.774 659.826 585.739 643.311 567.997 626.35C566.881 625.234 565.653 624.23 564.426 623.114C524.365 587.182 459.086 593.877 406.081 577.362C390.905 572.675 376.733 565.757 363.9 556.941C314.689 523.353 286.681 463.541 297.058 402.502C309.556 328.63 377.291 260.895 454.734 246.389C520.125 234.114 585.516 256.432 650.461 240.809C695.878 229.874 735.827 201.195 780.016 185.684C829.115 168.5 882.678 168.723 928.988 184.345C944.052 189.367 958.336 196.062 971.391 204.431C1025.18 238.354 1058.77 298.501 1059.99 362.665C1060.89 414.777 1041.8 467.67 1044.04 519.559C1045.82 561.516 1061.56 600.461 1067.36 641.749C1073.27 683.26 1066.91 731.802 1033.1 762.265C1001.41 790.832 954.318 794.849 915.485 785.587C876.652 776.326 843.064 755.905 807.021 739.947C771.089 723.99 729.466 712.831 688.29 722.986V722.986Z" stroke="white" stroke-opacity="0.5" stroke-width="0.836918" stroke-miterlimit="10"/>
<path d="M693.869 711.157C676.685 715.398 669.654 710.488 655.259 702.565C640.641 694.531 629.817 681.81 619.328 669.423C603.705 650.788 596.006 635.054 579.044 618.873C577.928 617.869 576.812 616.753 575.696 615.749C537.533 581.379 475.378 587.517 424.939 571.56C410.433 566.984 396.931 560.401 384.767 552.031C337.9 519.782 311.342 462.872 321.273 404.622C333.325 334.544 397.489 270.157 471.137 256.32C533.181 244.715 595.336 265.805 656.933 250.964C700.118 240.586 738.059 213.47 780.016 198.852C826.66 182.56 877.545 183.006 921.623 197.959C935.906 202.757 949.408 209.23 961.906 217.152C1013.01 249.513 1044.93 306.759 1046.16 367.686C1047.16 417.232 1029.08 467.558 1031.31 516.992C1033.1 556.83 1047.94 593.989 1053.63 633.157C1059.32 672.659 1053.41 718.857 1021.27 747.982C991.254 775.21 946.507 779.115 909.794 770.3C872.97 761.596 841.055 742.291 806.797 727.226C772.54 712.273 733.037 701.672 693.869 711.157V711.157Z" stroke="white" stroke-opacity="0.5" stroke-width="0.836918" stroke-miterlimit="10"/>
<path d="M699.449 699.441C683.157 703.346 676.35 698.771 662.736 691.183C648.899 683.484 638.521 671.432 628.59 659.603C613.748 641.861 606.384 626.796 590.315 611.397C589.31 610.393 588.194 609.388 587.079 608.384C550.812 575.577 491.893 581.045 443.91 565.757C430.184 561.405 417.352 555.045 405.746 547.01C361.111 516.211 336.003 461.979 345.6 406.519C357.205 340.124 417.909 279.196 487.541 266.14C546.349 255.093 605.156 274.956 663.517 261.007C704.359 251.187 740.29 225.633 780.016 211.908C824.317 196.62 872.412 197.178 914.146 211.573C927.649 216.26 940.481 222.286 952.31 229.874C1000.74 260.672 1030.98 314.905 1032.21 372.819C1033.21 419.798 1016.25 467.559 1018.48 514.426C1020.27 552.255 1034.33 587.517 1039.68 624.676C1045.15 662.17 1039.57 706.025 1009.22 733.81C980.877 759.587 938.584 763.381 903.769 755.235C868.953 747.201 838.712 728.9 806.128 714.84C773.99 700.445 736.496 690.514 699.449 699.441V699.441Z" stroke="white" stroke-opacity="0.5" stroke-width="0.836918" stroke-miterlimit="10"/>
<path d="M705.028 687.724C689.518 691.406 683.157 687.054 670.213 679.801C657.045 672.436 647.225 661.054 637.74 649.783C623.68 633.045 616.65 618.65 601.474 603.92C600.469 603.028 599.465 602.023 598.461 601.131C564.091 569.886 508.297 574.795 462.88 560.066C449.824 555.825 437.772 549.799 426.725 542.211C384.433 512.863 360.664 461.421 369.926 408.639C380.974 346.038 438.219 288.569 504.056 276.071C559.516 265.582 615.199 284.329 670.213 271.161C708.822 261.9 742.746 237.796 780.24 224.964C822.085 210.68 867.502 211.461 906.893 225.075C919.614 229.539 931.778 235.341 942.937 242.483C988.576 271.831 1017.25 323.05 1018.59 377.841C1019.6 422.253 1003.75 467.447 1005.87 511.748C1007.55 547.456 1020.94 580.821 1026.07 616.083C1031.32 651.569 1026.18 693.192 997.504 719.415C970.834 743.853 930.885 747.535 898.078 739.947C865.159 732.471 836.704 715.398 805.905 702.119C775.441 688.728 740.067 679.354 705.028 687.724V687.724Z" stroke="white" stroke-opacity="0.5" stroke-width="0.836918" stroke-miterlimit="10"/>
<path d="M710.608 676.007C695.99 679.466 689.852 675.226 677.577 668.419C665.079 661.501 655.818 650.676 646.89 639.964C633.611 624.118 626.916 610.393 612.521 596.556C611.628 595.663 610.624 594.77 609.62 593.878C577.036 564.195 524.477 568.435 481.627 554.375C469.352 550.358 457.858 544.555 447.481 537.302C407.532 509.405 385.102 460.64 394.141 410.76C404.742 351.841 458.528 297.832 520.348 286.115C572.572 276.183 624.907 293.703 676.685 281.428C712.951 272.836 744.866 250.183 780.128 238.243C819.519 224.852 862.369 225.857 899.417 238.913C911.357 243.153 922.85 248.621 933.34 255.428C976.302 283.213 1003.31 331.532 1004.65 383.086C1005.76 424.932 990.92 467.559 993.04 509.293C994.714 542.993 1007.32 574.461 1012.23 607.603C1017.25 641.08 1012.57 680.359 985.563 705.244C960.567 728.342 923.073 731.802 892.275 724.772C861.365 717.853 834.472 701.896 805.57 689.509C776.78 677.012 743.638 668.196 710.608 676.007V676.007Z" stroke="white" stroke-opacity="0.5" stroke-width="0.836918" stroke-miterlimit="10"/>
<path d="M716.187 664.29C702.35 667.526 696.548 663.509 685.054 657.037C673.337 650.453 664.521 640.187 656.041 630.144C643.543 615.191 637.182 602.246 623.68 589.079C622.787 588.186 621.894 587.405 621.002 586.512C590.315 558.503 540.992 562.074 500.597 548.46C488.992 544.555 478.279 539.087 468.459 532.168C430.742 505.61 409.763 459.747 418.467 412.545C428.622 357.42 478.837 306.758 536.863 295.711C585.739 286.338 634.839 302.63 683.38 291.136C717.415 283.101 747.321 262.011 780.351 250.964C817.398 238.577 857.459 239.805 892.163 252.08C903.434 256.097 914.035 261.342 923.966 267.702C964.25 293.926 989.581 339.342 991.031 387.772C992.147 427.163 978.533 467.112 980.542 506.391C982.216 538.083 994.044 567.654 998.731 598.787C1003.53 630.367 999.177 667.191 974.07 690.737C950.748 712.385 915.709 715.844 886.807 709.372C857.905 703.011 832.686 688.282 805.57 676.676C778.231 665.183 747.097 657.148 716.187 664.29V664.29Z" stroke="white" stroke-opacity="0.5" stroke-width="0.836918" stroke-miterlimit="10"/>
<path d="M721.767 652.573C708.822 655.475 703.355 651.681 692.53 645.655C681.483 639.406 673.225 629.809 665.303 620.324C653.474 606.264 647.56 593.989 634.839 581.603C634.058 580.821 633.165 580.04 632.272 579.148C603.482 552.701 557.284 555.602 519.456 542.658C508.631 538.976 498.477 533.731 489.327 527.259C453.953 502.151 434.313 459.078 442.682 414.554C452.391 363.111 499.146 316.02 553.156 305.643C598.796 296.939 644.547 312.003 689.852 301.291C721.544 293.814 749.441 274.286 780.351 264.131C814.944 252.749 852.326 254.088 884.687 265.805C895.176 269.599 905.108 274.509 914.258 280.535C951.864 305.196 975.52 347.712 976.971 393.017C978.087 429.841 965.589 467.224 967.598 503.937C969.271 533.508 980.319 561.182 984.671 590.418C989.246 619.989 985.34 654.582 961.907 676.565C940.258 696.874 907.674 700.11 880.781 694.308C853.888 688.505 830.343 674.891 804.901 664.29C779.681 653.466 750.668 645.989 721.767 652.573V652.573Z" stroke="white" stroke-opacity="0.5" stroke-width="0.836918" stroke-miterlimit="10"/>
<path d="M727.346 640.745C715.295 643.423 710.05 639.852 699.895 634.161C689.518 628.358 681.818 619.32 674.453 610.393C663.406 597.225 657.826 585.731 645.998 574.126C645.217 573.345 644.435 572.675 643.654 571.894C616.761 547.01 573.688 549.353 538.426 536.967C528.271 533.396 518.898 528.486 510.305 522.349C477.275 498.692 458.974 458.297 467.009 416.562C476.159 368.914 519.456 325.171 569.671 315.463C611.963 307.317 654.479 321.154 696.548 311.334C726.007 304.415 751.896 286.338 780.463 277.076C812.712 266.698 847.416 268.149 877.322 279.196C887.03 282.767 896.292 287.342 904.773 293.033C939.7 316.132 961.683 355.635 963.246 397.815C964.473 432.073 952.979 466.889 954.988 501.035C956.55 528.598 966.928 554.375 971.057 581.491C975.409 609.053 971.95 641.303 950.19 661.947C930.215 680.917 899.975 684.041 875.09 678.797C850.094 673.552 828.223 661.166 804.677 651.346C781.132 641.638 754.128 634.831 727.346 640.745V640.745Z" stroke="white" stroke-opacity="0.5" stroke-width="0.836918" stroke-miterlimit="10"/>
<path d="M732.926 629.028C721.655 631.483 716.745 628.135 707.372 622.779C697.775 617.311 690.522 608.942 683.603 600.573C673.337 588.298 668.092 577.585 657.045 566.65C656.376 565.98 655.594 565.199 654.813 564.529C629.817 541.207 589.868 542.993 557.173 531.164C547.799 527.817 538.984 523.13 531.061 517.439C500.374 495.233 483.412 457.627 491.112 418.682C499.816 374.716 539.653 334.433 585.851 325.506C624.907 317.917 664.075 330.527 702.797 321.6C729.913 315.351 753.904 298.724 780.239 290.355C810.034 280.87 842.06 282.655 869.734 293.033C878.661 296.381 887.253 300.733 895.065 305.977C927.202 327.514 947.623 364.115 949.185 403.172C950.413 434.863 940.035 467.112 942.044 498.692C943.606 524.246 953.203 548.126 957.108 573.233C961.125 598.787 958.113 628.693 938.138 647.998C919.837 665.629 892.052 668.531 869.064 663.844C846.077 659.157 825.879 647.886 804.12 638.959C782.583 629.921 757.698 623.672 732.926 629.028V629.028Z" stroke="white" stroke-opacity="0.5" stroke-width="0.836918" stroke-miterlimit="10"/>
<path d="M738.505 617.311C728.127 619.543 723.441 616.307 714.848 611.397C705.921 606.264 699.226 598.453 692.865 590.753C683.38 579.371 678.47 569.328 668.316 559.173L666.307 557.165C643.208 535.405 606.495 536.521 576.255 525.362C567.551 522.126 559.516 517.774 552.151 512.417C523.696 491.55 508.185 456.734 515.55 420.58C523.696 380.407 560.074 343.471 602.478 335.214C638.187 328.184 674.118 339.677 709.604 331.531C734.488 325.84 756.36 310.776 780.463 303.299C807.802 294.819 837.15 296.716 862.481 306.424C870.738 309.548 878.438 313.566 885.691 318.476C915.151 338.45 933.898 372.15 935.572 408.082C936.911 437.206 927.537 466.889 929.434 496.014C930.997 519.448 939.7 541.431 943.494 564.641C947.288 588.186 944.722 615.861 926.421 633.603C909.795 649.784 884.464 652.685 863.485 648.556C842.506 644.427 823.983 634.384 804.008 626.238C784.034 618.204 761.269 612.513 738.505 617.311Z" stroke="white" stroke-opacity="0.5" stroke-width="0.836918" stroke-miterlimit="10"/>
<path d="M744.085 605.594C734.488 607.491 730.136 604.59 722.325 600.015C714.067 595.328 707.93 588.075 702.016 580.933C693.312 570.443 688.737 561.182 679.475 551.808C678.917 551.25 678.247 550.581 677.578 550.023C656.376 529.825 622.787 530.383 595.113 519.782C587.217 516.777 579.78 512.683 573.019 507.619C546.907 488.202 532.735 456.176 539.877 422.699C547.576 386.21 580.495 352.845 618.882 345.145C651.354 338.673 683.938 348.939 716.187 341.686C738.84 336.553 758.703 323.05 780.574 316.467C805.57 308.99 832.129 311.11 855.116 320.149C862.592 323.05 869.623 326.844 876.206 331.308C902.988 349.72 920.061 380.519 921.735 413.214C923.074 439.884 914.816 466.889 916.713 493.447C918.275 514.872 926.198 534.958 929.657 556.048C933.228 577.697 931.108 602.916 914.481 619.32C899.528 634.161 876.541 636.839 857.571 633.38C838.489 629.809 821.639 620.882 803.45 613.74C785.484 606.487 764.729 601.354 744.085 605.594V605.594Z" stroke="white" stroke-opacity="0.5" stroke-width="0.836918" stroke-miterlimit="10"/>
<path d="M749.664 593.878C740.96 595.551 736.943 592.762 729.69 588.633C722.213 584.281 716.522 577.697 711.166 571.113C703.243 561.517 699.003 552.924 690.522 544.332L688.848 542.658C669.543 524.023 639.079 523.911 613.972 513.868C606.719 510.967 600.023 507.173 593.886 502.598C570.117 484.632 557.285 455.395 564.091 424.708C571.233 392.013 600.693 361.995 635.285 355.077C664.41 349.163 693.758 358.201 722.771 351.729C743.08 347.154 760.935 335.102 780.686 329.411C803.227 322.939 827.219 325.171 847.863 333.652C854.558 336.441 860.919 339.789 866.833 343.918C890.936 360.768 906.335 388.665 908.009 418.236C909.348 442.339 902.207 466.778 904.104 490.769C905.554 510.186 912.808 528.375 916.044 547.456C919.391 567.096 917.717 589.972 902.876 605.036C889.597 618.539 869.065 621.105 851.991 618.092C834.918 615.191 819.742 607.38 803.339 601.019C786.935 594.659 768.3 590.195 749.664 593.878Z" stroke="white" stroke-opacity="0.5" stroke-width="0.836918" stroke-miterlimit="10"/>
<path d="M755.244 582.161C747.433 583.611 743.638 581.045 737.166 577.251C730.359 573.233 725.226 567.319 720.316 561.293C713.175 552.589 709.269 544.778 701.681 536.967C701.235 536.409 700.677 535.963 700.119 535.405C682.711 518.332 655.483 517.662 632.83 508.177C626.358 505.499 620.333 501.928 614.753 497.688C593.216 481.172 581.834 454.614 588.306 426.717C595.002 397.704 621.002 371.146 651.577 364.897C677.466 359.652 703.466 367.463 729.243 361.772C747.321 357.866 763.167 347.265 780.574 342.467C800.772 336.888 821.974 339.343 840.275 347.154C846.189 349.72 851.88 352.845 857.125 356.527C878.55 371.815 892.275 396.699 894.061 423.258C895.511 444.794 889.486 466.554 891.271 488.091C892.722 505.387 899.194 521.791 902.207 538.864C905.331 556.495 903.992 577.027 890.936 590.753C879.331 602.805 861.253 605.26 846.189 602.916C831.124 600.573 817.51 593.877 803.004 588.41C788.386 582.942 771.759 579.148 755.244 582.161V582.161Z" stroke="white" stroke-opacity="0.5" stroke-width="0.836918" stroke-miterlimit="10"/>
<path d="M760.823 570.332C753.793 571.56 750.334 569.216 744.643 565.757C738.505 562.186 733.93 556.718 729.578 551.362C723.217 543.551 719.647 536.409 712.84 529.379C712.393 528.933 711.947 528.486 711.501 527.928C695.99 512.418 671.886 511.19 651.8 502.263C645.998 499.696 640.642 496.46 635.732 492.666C616.538 477.49 606.495 453.833 612.633 428.614C618.77 403.395 641.311 380.296 668.092 374.717C690.633 370.03 713.398 376.614 735.939 371.815C751.673 368.468 765.621 359.429 780.797 355.523C798.54 350.948 817.064 353.626 833.021 360.768C838.154 363.111 843.176 365.901 847.639 369.249C866.275 382.974 878.438 404.957 880.223 428.279C881.674 447.249 876.764 466.443 878.55 485.525C880 500.812 885.691 515.207 888.481 530.383C891.271 546.006 890.49 564.306 879.107 576.47C869.176 587.182 853.442 589.526 840.386 587.74C827.219 585.955 815.39 580.487 802.669 575.8C789.836 571.225 775.33 567.989 760.823 570.332V570.332Z" stroke="white" stroke-opacity="0.5" stroke-width="0.836918" stroke-miterlimit="10"/>
<path d="M766.403 558.615C760.265 559.508 757.141 557.388 752.119 554.375C746.763 551.139 742.634 546.34 738.728 541.542C733.149 534.624 729.913 528.263 723.999 521.902C723.664 521.456 723.218 521.01 722.771 520.675C709.157 506.726 688.179 504.829 670.659 496.572C665.638 494.228 660.951 491.215 656.599 487.756C639.749 474.031 631.045 453.164 636.848 430.623C642.427 409.086 661.509 389.446 684.385 384.536C703.689 380.407 723.106 385.875 742.299 381.858C755.802 379.068 767.63 371.592 780.574 368.579C795.974 365.008 811.708 367.798 825.433 374.27C829.897 376.39 834.026 378.957 837.931 381.858C853.888 394.021 864.378 413.103 866.275 433.301C867.725 449.704 863.931 466.331 865.605 482.846C867.056 496.125 871.966 508.623 874.421 521.679C876.987 535.293 876.653 551.25 866.944 562.075C858.687 571.448 845.408 573.568 834.36 572.341C823.201 571.113 813.047 566.761 802 562.967C791.287 559.396 778.789 556.83 766.403 558.615V558.615Z" stroke="white" stroke-opacity="0.5" stroke-width="0.836918" stroke-miterlimit="10"/>
<path d="M771.982 546.898C766.626 547.568 763.836 545.671 759.484 542.993C754.797 540.091 751.226 535.963 747.879 531.722C743.08 525.696 740.179 520.005 735.157 514.538C734.823 514.203 734.488 513.756 734.153 513.422C722.436 501.035 704.694 498.58 689.629 490.881C685.389 488.649 681.26 485.971 677.577 482.846C662.959 470.571 655.706 452.382 661.174 432.743C666.195 415 681.929 398.708 700.788 394.579C716.745 391.008 732.926 395.249 748.883 392.124C760.042 389.892 769.973 383.978 780.686 381.746C793.63 379.18 806.798 382.193 818.068 387.995C821.751 389.892 825.21 392.124 828.446 394.691C841.725 405.292 850.541 421.472 852.438 438.545C854 452.382 851.21 466.443 852.884 480.391C854.223 491.55 858.463 502.263 860.695 513.31C863.039 525.027 863.039 538.529 855.116 548.014C848.42 555.937 837.596 558.057 828.558 557.388C819.407 556.718 810.815 553.594 801.665 550.692C792.737 547.679 782.36 545.559 771.982 546.898V546.898Z" stroke="white" stroke-opacity="0.5" stroke-width="0.836918" stroke-miterlimit="10"/>
<path d="M777.45 535.182C772.986 535.628 770.42 533.842 766.849 531.611C762.832 529.156 759.819 525.473 756.917 521.902C752.789 516.769 750.334 511.859 746.093 507.061C745.759 506.726 745.535 506.392 745.201 506.057C735.381 495.233 720.763 492.108 708.265 485.078C704.694 483.069 701.346 480.614 698.222 477.936C685.947 467.112 679.921 451.713 685.277 434.751C689.629 420.691 702.016 407.97 717.08 404.399C729.801 401.386 742.634 404.399 755.355 402.167C764.282 400.493 772.205 396.141 780.574 394.802C791.175 393.24 801.553 396.365 810.48 401.498C813.382 403.172 816.171 405.069 818.738 407.3C829.339 416.339 836.481 429.618 838.489 443.567C840.051 454.949 838.378 466.331 840.051 477.713C841.39 486.863 844.85 495.567 846.858 504.718C848.979 514.426 849.425 525.585 843.176 533.619C838.154 540.091 829.785 542.212 822.644 542.1C815.39 541.988 808.583 539.98 801.218 537.971C794.188 535.851 785.819 534.4 777.45 535.182V535.182Z" stroke="white" stroke-opacity="0.5" stroke-width="0.836918" stroke-miterlimit="10"/>
<path d="M783.029 523.465C779.347 523.576 777.115 522.126 774.325 520.228C771.089 518.108 768.523 515.095 766.179 512.082C762.832 507.842 760.712 503.602 757.364 499.585C757.141 499.361 756.917 499.027 756.694 498.803C748.771 489.653 737.278 485.859 727.346 479.275C724.557 477.378 721.767 475.258 719.312 472.915C709.381 463.541 704.582 450.932 709.715 436.648C713.398 426.382 722.548 417.009 733.595 414.219C742.969 411.764 752.677 413.661 762.051 412.099C768.634 411.094 774.66 408.193 780.798 407.747C789.055 407.189 796.643 410.425 803.339 415C805.459 416.451 807.579 418.124 809.476 419.91C817.399 427.386 822.867 437.653 824.875 448.477C826.438 457.292 825.88 466.108 827.553 475.035C828.892 482.177 831.571 488.984 833.356 496.014C835.253 503.713 836.034 512.529 831.682 519.224C828.335 524.357 822.42 526.254 817.287 526.812C812.043 527.37 806.909 526.477 801.33 525.25C795.639 524.134 789.39 523.241 783.029 523.465V523.465Z" stroke="white" stroke-opacity="0.5" stroke-width="0.836918" stroke-miterlimit="10"/>
</svg>
