<svg width="27" height="32" viewBox="0 0 27 32" fill="none" xmlns="http://www.w3.org/2000/svg">
<g clip-path="url(#clip0_19_2259)">
<path d="M13.0442 29C5.87606 29 0.0441895 23.1681 0.0441895 16C0.0441895 8.83187 5.87606 3 13.0442 3C20.2123 3 26.0442 8.83187 26.0442 16C26.0442 23.1681 20.2123 29 13.0442 29ZM13.0442 5C6.98169 5 2.04419 9.9375 2.04419 16C2.04419 22.0625 6.98169 27 13.0442 27C19.1067 27 24.0442 22.0656 24.0442 16C24.0442 9.93437 19.1098 5 13.0442 5Z" fill="white" stroke="white" stroke-width="0.0625"/>
<path d="M17.2735 18.25C16.186 18.25 15.1353 17.7675 14.3147 16.8919C13.503 16.0114 13.0177 14.8793 12.9397 13.6844C12.8478 12.3906 13.2447 11.2 14.0572 10.3331C14.8697 9.46625 16.0053 9 17.2735 9C18.5322 9 19.6716 9.47625 20.4816 10.3413C21.2916 11.2063 21.6985 12.4037 21.6066 13.6856C21.5271 14.8799 21.042 16.0111 20.2316 16.8919C19.4103 17.7675 18.3603 18.25 17.2735 18.25ZM7.28284 18.46C5.42284 18.46 3.78722 16.7406 3.63722 14.6269C3.56034 13.5444 3.89659 12.5437 4.58534 11.8094C5.27409 11.075 6.22409 10.6844 7.28222 10.6844C8.34034 10.6844 9.28972 11.0869 9.97409 11.8181C10.6585 12.5494 11.0053 13.5569 10.9272 14.6306C10.7747 16.7413 9.13972 18.46 7.28284 18.46ZM23.3172 22.205C23.2178 21.9113 22.976 21.5981 22.491 21.3013C21.0247 20.4056 19.221 19.9319 17.2735 19.9319C15.3628 19.9319 13.5091 20.4256 12.0528 21.3225C10.4122 22.3331 9.30972 23.8069 8.86534 25.5837C8.76034 26.0019 8.60722 26.78 8.77097 27.2156C11.3988 28.2149 14.2938 28.2608 16.952 27.3452C19.6101 26.4296 21.8628 24.6106 23.3178 22.205H23.3172ZM7.27097 25.0856C7.71284 23.3225 8.65347 21.8525 10.1128 20.6637C10.1818 20.6068 10.2343 20.5324 10.2648 20.4484C10.2952 20.3643 10.3026 20.2735 10.286 20.1856C10.2695 20.0977 10.2297 20.0159 10.1708 19.9486C10.1118 19.8813 10.0359 19.8311 9.95097 19.8031C9.20097 19.5638 8.34472 19.4356 7.28284 19.4356C5.79409 19.4356 4.21347 19.8388 3.02409 20.5713C2.68659 20.7794 2.35534 20.8594 2.10034 20.9306C3.12414 23.1934 4.82196 25.0846 6.96159 26.3456L7.07347 26.3369C7.09793 25.9143 7.16409 25.4952 7.27097 25.0856Z" fill="white" stroke="white" stroke-width="0.0625"/>
</g>
<defs>
<clipPath id="clip0_19_2259">
<rect width="26.6579" height="32" fill="white" transform="translate(0.0441895)"/>
</clipPath>
</defs>
</svg>
