<svg width="28" height="32" viewBox="0 0 28 32" fill="none" xmlns="http://www.w3.org/2000/svg">
<g clip-path="url(#clip0_19_2252)">
<path d="M13.607 3.00023C6.29577 2.90148 0.327018 8.87023 0.425768 16.1815C0.523268 23.1934 6.23264 28.9027 13.2445 29.0002C20.557 29.1002 26.5245 23.1315 26.4245 15.8202C26.3283 8.80711 20.6189 3.09773 13.607 3.00023ZM21.5083 23.4534C21.4834 23.4803 21.4529 23.5014 21.4189 23.5152C21.3849 23.529 21.3483 23.5352 21.3117 23.5333C21.2751 23.5314 21.2393 23.5214 21.207 23.5042C21.1746 23.4869 21.1465 23.4627 21.1245 23.4334C20.5655 22.7019 19.8809 22.0757 19.1026 21.584C17.5114 20.5627 15.4951 20.0002 13.4258 20.0002C11.3564 20.0002 9.34014 20.5627 7.74889 21.584C6.97069 22.0755 6.28608 22.7015 5.72702 23.4327C5.70506 23.4621 5.6769 23.4863 5.64455 23.5035C5.6122 23.5208 5.57645 23.5308 5.53983 23.5327C5.50321 23.5346 5.46662 23.5284 5.43265 23.5146C5.39868 23.5008 5.36817 23.4797 5.34327 23.4527C3.50932 21.473 2.47045 18.886 2.42577 16.1877C2.32389 10.1059 7.31452 5.01523 13.3989 5.00023C19.4833 4.98523 24.4258 9.92586 24.4258 16.0002C24.4279 18.7636 23.3858 21.4257 21.5083 23.4534Z" fill="white" stroke="white" stroke-width="0.0625"/>
<path d="M13.4258 9C12.1933 9 11.0789 9.46188 10.2871 10.3013C9.49519 11.1406 9.09956 12.3012 9.18894 13.5469C9.37019 16 11.2708 18 13.4258 18C15.5808 18 17.4777 16 17.6627 13.5475C17.7552 12.3137 17.3627 11.1638 16.5577 10.3088C15.7627 9.465 14.6502 9 13.4258 9Z" fill="white" stroke="white" stroke-width="0.0625"/>
</g>
<defs>
<clipPath id="clip0_19_2252">
<rect width="26.6579" height="32" fill="white" transform="translate(0.425781)"/>
</clipPath>
</defs>
</svg>
