<svg width="27" height="32" viewBox="0 0 27 32" fill="none" xmlns="http://www.w3.org/2000/svg">
<g clip-path="url(#clip0_19_2273)">
<path d="M23.2857 17C23.2857 15.0222 22.6992 13.0888 21.6004 11.4443C20.5015 9.79981 18.9398 8.51808 17.1125 7.7612C15.2852 7.00433 13.2746 6.8063 11.3348 7.19215C9.39494 7.578 7.61311 8.53041 6.21459 9.92893C4.81606 11.3275 3.86366 13.1093 3.4778 15.0491C3.09195 16.9889 3.28998 18.9996 4.04686 20.8268C4.80374 22.6541 6.08546 24.2159 7.72995 25.3147C9.37444 26.4135 11.3078 27 13.2857 27C15.9378 27 18.4814 25.9464 20.3567 24.0711C22.2321 22.1957 23.2857 19.6522 23.2857 17ZM6.16378 5.70062C5.63902 5.25158 4.97194 5.0033 4.28128 5L4.10691 5.005C2.51003 5.10125 1.28128 6.5 1.28566 8.1875C1.28566 9.01313 1.57691 9.39812 1.96566 9.88937C1.9898 9.92094 2.0203 9.9471 2.05518 9.96615C2.09006 9.9852 2.12855 9.99674 2.16816 10H2.22316C2.25412 9.99945 2.28455 9.99177 2.31208 9.97758C2.33961 9.96338 2.3635 9.94304 2.38191 9.91813L6.18003 6.1875C6.21246 6.1547 6.2378 6.11558 6.25446 6.07257C6.27113 6.02956 6.27877 5.98359 6.27691 5.9375C6.27533 5.89236 6.26448 5.84804 6.24501 5.80728C6.22555 5.76653 6.1979 5.73022 6.16378 5.70062V5.70062ZM20.3988 5.70062C20.9235 5.25158 21.5906 5.0033 22.2813 5L22.4557 5.005C24.0525 5.10125 25.2813 6.5 25.2769 8.1875C25.2769 9.01313 24.9857 9.39812 24.5969 9.88937C24.5727 9.92083 24.5422 9.94686 24.5073 9.96581C24.4724 9.98475 24.434 9.99619 24.3944 9.99938H24.3394C24.3084 9.99882 24.278 9.99115 24.2505 9.97695C24.223 9.96275 24.1991 9.94241 24.1807 9.9175L20.3825 6.1875C20.3501 6.1547 20.3248 6.11558 20.3081 6.07257C20.2914 6.02956 20.2838 5.98359 20.2857 5.9375C20.2872 5.89236 20.2981 5.84804 20.3176 5.80728C20.337 5.76653 20.3647 5.73022 20.3988 5.70062V5.70062Z" stroke="white" stroke-width="2" stroke-miterlimit="10"/>
<path d="M13.2856 10V17H8.28565M23.2856 27L20.7856 24.5M3.28564 27L5.78565 24.5" stroke="white" stroke-width="2" stroke-linecap="round" stroke-linejoin="round"/>
</g>
<defs>
<clipPath id="clip0_19_2273">
<rect width="26.6579" height="32" fill="white" transform="translate(0.28125)"/>
</clipPath>
</defs>
</svg>
